<svg xmlns="http://www.w3.org/2000/svg" width="1200" height="800" viewBox="0 0 1200 800" role="img" aria-label="Illustration femme enceinte">
  <defs>
    <linearGradient id="bg" x1="0" x2="1" y1="0" y2="1">
      <stop offset="0" stop-color="#ecfeff"/>
      <stop offset="0.55" stop-color="#fdf2f8"/>
      <stop offset="1" stop-color="#ecfdf5"/>
    </linearGradient>
    <linearGradient id="accent" x1="0" x2="1" y1="0" y2="0">
      <stop offset="0" stop-color="#059669"/>
      <stop offset="1" stop-color="#db2777"/>
    </linearGradient>
    <filter id="shadow" x="-20%" y="-20%" width="140%" height="140%">
      <feDropShadow dx="0" dy="12" stdDeviation="18" flood-color="#0f172a" flood-opacity="0.15"/>
    </filter>
  </defs>

  <rect width="1200" height="800" rx="48" fill="url(#bg)"/>

  <g filter="url(#shadow)">
    <rect x="90" y="90" width="1020" height="620" rx="44" fill="#ffffff" stroke="#e5e7eb"/>
  </g>

  <g transform="translate(150,160)">
    <rect x="0" y="0" width="340" height="22" rx="11" fill="url(#accent)"/>
    <text x="0" y="58" font-size="44" font-family="ui-sans-serif, system-ui, -apple-system, Segoe UI" font-weight="800" fill="#0f172a">
      Suivi grossesse
    </text>
    <text x="0" y="98" font-size="22" font-family="ui-sans-serif, system-ui, -apple-system, Segoe UI" fill="#475569">
      Conseils, signes dalerte, nutrition, planning ANC
    </text>

    <g transform="translate(540,40)">
      <circle cx="150" cy="120" r="92" fill="#fdf2f8" stroke="#fbcfe8" />
      <circle cx="150" cy="105" r="54" fill="#ffe4e6" stroke="#fecdd3"/>
      <path d="M150 180c-70 0-118 72-118 150h236c0-78-48-150-118-150z" fill="#ec4899" opacity="0.18"/>
      <path d="M150 220c-52 0-88 52-88 110h176c0-58-36-110-88-110z" fill="#059669" opacity="0.12"/>
      <path d="M150 230c-22 0-40 18-40 40s18 40 40 40 40-18 40-40-18-40-40-40z" fill="#fde68a" opacity="0.9"/>
      <path d="M95 140c20 10 40 14 55 15 15 1 25-2 25-2" fill="none" stroke="#0f172a" stroke-width="10" stroke-linecap="round" opacity="0.15"/>
      <path d="M205 140c-20 10-40 14-55 15-15 1-25-2-25-2" fill="none" stroke="#0f172a" stroke-width="10" stroke-linecap="round" opacity="0.15"/>
    </g>

    <g transform="translate(0,160)">
      <rect x="0" y="0" width="420" height="110" rx="24" fill="#f8fafc" stroke="#e5e7eb"/>
      <text x="22" y="42" font-size="18" font-family="ui-sans-serif, system-ui, -apple-system, Segoe UI" font-weight="800" fill="#0f172a">
        Chat + dict�e vocale
      </text>
      <text x="22" y="76" font-size="16" font-family="ui-sans-serif, system-ui, -apple-system, Segoe UI" fill="#475569">
        Posez vos questions, obtenez des r�ponses structur�es.
      </text>
    </g>

    <g transform="translate(0,290)">
      <rect x="0" y="0" width="420" height="110" rx="24" fill="#f8fafc" stroke="#e5e7eb"/>
      <text x="22" y="42" font-size="18" font-family="ui-sans-serif, system-ui, -apple-system, Segoe UI" font-weight="800" fill="#0f172a">
        Journal des sympt�mes
      </text>
      <text x="22" y="76" font-size="16" font-family="ui-sans-serif, system-ui, -apple-system, Segoe UI" fill="#475569">
        Historique clair, utile pour la consultation.
      </text>
    </g>
  </g>
</svg>

